<svg xmlns="http://www.w3.org/2000/svg" width="1280" viewBox="0 0 960 540" height="720" version="1.0"><defs><clipPath id="a"><path d="M.89 0H959.1v539H.9Zm0 0"/></clipPath><clipPath id="b"><path d="M54.79 127.42h309.17v219.34H54.8Zm0 0"/></clipPath><clipPath id="c"><path d="M730.82 113.91h162.45v246.3H730.82Zm0 0"/></clipPath></defs><g clip-path="url(#a)" fill="#fff"><path d="M.89 0H959.1v546.49H.9Zm0 0"/><path d="M.89 0H959.1v539H.9Zm0 0"/><path d="M.89 0H959.1v539H.9Zm0 0"/></g><g clip-path="url(#b)"><path fill="#545454" d="M312.43 320.9a25.66 25.66 0 0 0 25.64-25.78l.13-141.85a25.77 25.77 0 0 0-25.77-25.79H106.32a25.77 25.77 0 0 0-25.77 25.79v141.85a25.77 25.77 0 0 0 25.77 25.79H54.79a25.77 25.77 0 0 0 25.76 25.79H338.2a25.77 25.77 0 0 0 25.76-25.8ZM106.32 153.28h206.11v141.85H106.32ZM209.38 333.8c-7.1 0-12.89-5.8-12.89-12.9 0-7.09 5.8-12.89 12.88-12.89 7.1 0 12.89 5.8 12.89 12.9 0 7.09-5.8 12.9-12.88 12.9Zm0 0"/></g><path fill="#efecec" d="M735.57 129.66c-2.03 3.29-1.4 160.22 1.2 166.4 2.07 4.9 68.35 59.94 71.83 61.4 44.81-.3 75.02-16.6 80.04-25.21 1.91-10.84.3-177.8-1.54-181.3-1.58-3.02-86.4-33.4-89.37-34.1-2.66-.62-59.92 9.15-62.17 12.81Zm0 0" fill-rule="evenodd"/><g clip-path="url(#c)"><path transform="matrix(.88889 0 0 .88813 413.1 -36.67)" fill="none" d="M362.78 187.28c-2.27 3.7-1.57 180.4 1.36 187.37 2.33 5.51 76.89 67.48 80.8 69.14 50.42-.35 84.4-18.7 90.05-28.4 2.15-12.2.33-200.2-1.73-204.14-1.78-3.4-97.2-37.61-100.54-38.39-3-.7-67.42 10.3-69.94 14.42Zm0 0" stroke="#000" stroke-width="6.11"/></g><path fill="#fff" d="M738.8 132.9c22.02 9.3 46.39 24.31 70.94 36.15 23.26-5.52 56.87-12.9 73.8-15.86-21.8 6.76-50.43 13.09-72.23 19.85-1.27 50.96-.65 128.19-1.92 179.15-.64-51.39-2.39-129.84-3.03-181.23-23.49-12.68-46.6-24.1-67.55-38.06Zm0 0" fill-opacity=".55" fill-rule="evenodd"/><path fill="#545454" d="M875.32 300.8c-8.06 11.57-33.4 17.28-45.45 12.6 2.09-.55 42.75-11.72 45.45-12.6Zm0 0" fill-opacity=".16" fill-rule="evenodd"/><path fill="#fff" d="m833.83 279.32 37.57-14.46c3.86 1.37 3.1 7.08 3.1 7.08l-5.86 2.05s-8.17 12.81-22.7 7.8c0 0-10.8 1.92-12.11-2.47Zm0 0" fill-opacity=".4" fill-rule="evenodd"/><path fill="#545454" d="m834.16 274.46 37.43-9.73c.48 1.76.5 4.3-.23 5.62-1.9.91-5.7 1.66-7.6 2.57-5.47 5.24-10.22 5.7-18.94 4.95-3.36.7-6.72 1.25-10.09 1.96-1.02-2.04-1.32-2.89-.57-5.37Zm0 0" fill-rule="evenodd"/><path fill="#fff" d="m737.42 131.8 72.76 40.79-.29 182.41-71.21-59.92Zm0 0" fill-opacity=".4" fill-rule="evenodd"/><path fill="#545454" d="M871.1 312.35c-8.4 11.05-25.17 12.95-34.56 9.58 1.59-.42 32.5-8.91 34.55-9.58ZM864.87 323.67c-4.85 6.54-14.22 8.56-21.67 6.01 1-.27 20.39-5.59 21.67-6Zm0 0" fill-opacity=".16" fill-rule="evenodd"/><path fill="#fcfcfc" d="m877.88 165.7 3.7.5.67 87.16-57.18 15.97-1.41-4.62 54.94-14.64Zm0 0" fill-opacity=".44" fill-rule="evenodd"/><path fill="#545454" d="m823.96 198 .08 2.45 53.76-15.5ZM823.17 215.75l.09 2.45 53.76-15.5-53.84 13.05ZM823.96 232.12l.08 2.45 53.76-15.5ZM823.96 248.24l.08 2.45 53.76-15.5Zm0 0" fill-opacity=".23" fill-rule="evenodd"/><path transform="matrix(.88889 0 0 .88813 413.1 -36.67)" fill="none" d="m522.55 229.64-60.52 15.11.5 99.6" stroke="#9e9e9e" stroke-width="2.61"/><path d="M188.06 412.57c-.28 2.4-1.17 4.25-2.67 5.56-1.5 1.3-3.47 1.95-5.94 1.95a8 8 0 0 1-6.45-2.87c-1.62-1.93-2.42-4.5-2.42-7.74v-2.17c0-2.11.37-3.97 1.12-5.56a8.38 8.38 0 0 1 3.2-3.69 8.9 8.9 0 0 1 4.82-1.3c2.4 0 4.33.68 5.8 2.02 1.45 1.34 2.3 3.21 2.54 5.6h-3.01c-.27-1.82-.83-3.12-1.7-3.93a5.1 5.1 0 0 0-3.63-1.22 5.4 5.4 0 0 0-4.52 2.13c-1.08 1.4-1.62 3.42-1.62 6.03v2.19c0 2.47.51 4.43 1.54 5.89a5 5 0 0 0 4.33 2.17c1.66 0 2.93-.37 3.81-1.12.9-.75 1.5-2.07 1.79-3.94ZM194.81 419.77h-2.87v-23.95h2.87ZM202.56 419.77h-2.87V402.9h2.87Zm-3.1-21.34c0-.47.14-.87.42-1.19.29-.32.7-.48 1.26-.48s1 .16 1.28.48c.3.32.44.72.44 1.19s-.15.86-.44 1.17c-.29.3-.72.45-1.28.45-.55 0-.97-.15-1.26-.45-.28-.31-.43-.7-.43-1.17ZM214.19 420.08a7.4 7.4 0 0 1-5.6-2.25c-1.42-1.5-2.14-3.5-2.14-6.03v-.53c0-1.67.32-3.17.96-4.48a7.51 7.51 0 0 1 2.68-3.08 6.68 6.68 0 0 1 3.74-1.13c2.19 0 3.89.73 5.1 2.18 1.23 1.44 1.84 3.51 1.84 6.2v1.2h-11.44a5.97 5.97 0 0 0 1.45 4.03 4.62 4.62 0 0 0 3.56 1.53c1.02 0 1.88-.2 2.58-.62.71-.41 1.33-.96 1.86-1.64l1.77 1.36c-1.42 2.18-3.54 3.26-6.36 3.26Zm-.36-15.12c-1.17 0-2.15.43-2.94 1.28a6.13 6.13 0 0 0-1.47 3.55h8.46v-.22a5.48 5.48 0 0 0-1.2-3.4 3.58 3.58 0 0 0-2.85-1.21ZM226.82 402.9l.1 2.12a6.15 6.15 0 0 1 5.06-2.44c3.56 0 5.36 2.02 5.4 6.03v11.16h-2.9V408.6c-.01-1.2-.29-2.1-.83-2.69-.54-.58-1.39-.87-2.54-.87-.94 0-1.77.25-2.47.75a5.06 5.06 0 0 0-1.66 1.97v12.01h-2.87V402.9ZM245.63 398.82v4.08h3.16v2.23h-3.16v10.47c0 .67.14 1.17.42 1.51.28.34.76.5 1.44.5.33 0 .79-.06 1.38-.18v2.34c-.77.2-1.5.31-2.22.31-1.3 0-2.27-.39-2.92-1.17a5.04 5.04 0 0 1-.97-3.31v-10.47h-3.08v-2.23h3.08v-4.08ZM776.3 409.65c-2.57-.74-4.44-1.65-5.6-2.72a5.18 5.18 0 0 1-1.75-3.99c0-1.79.71-3.27 2.14-4.43 1.43-1.17 3.29-1.75 5.58-1.75 1.55 0 2.94.3 4.15.9a6.84 6.84 0 0 1 2.85 2.5 6.3 6.3 0 0 1 1.01 3.47h-3.01c0-1.37-.44-2.45-1.31-3.23-.88-.79-2.11-1.18-3.7-1.18-1.47 0-2.63.33-3.46.97a3.24 3.24 0 0 0-1.23 2.7c0 .94.39 1.72 1.17 2.37.79.63 2.13 1.21 4.01 1.75 1.89.52 3.36 1.1 4.42 1.75a6.65 6.65 0 0 1 2.38 2.23c.52.86.78 1.86.78 3.02 0 1.83-.72 3.3-2.16 4.42-1.43 1.1-3.35 1.65-5.75 1.65-1.56 0-3.02-.3-4.37-.89a7.51 7.51 0 0 1-3.13-2.45 6.02 6.02 0 0 1-1.09-3.55h3c0 1.38.5 2.46 1.52 3.25a6.46 6.46 0 0 0 4.07 1.19c1.58 0 2.79-.32 3.63-.95a3.14 3.14 0 0 0 1.27-2.64c0-1.12-.4-1.98-1.18-2.58-.78-.61-2.2-1.22-4.23-1.81ZM795.11 420.08a7.4 7.4 0 0 1-5.6-2.25c-1.42-1.5-2.13-3.5-2.13-6.03v-.53c0-1.67.32-3.17.95-4.48a7.51 7.51 0 0 1 2.69-3.08 6.68 6.68 0 0 1 3.73-1.13c2.2 0 3.9.73 5.11 2.18 1.22 1.44 1.83 3.51 1.83 6.2v1.2h-11.44a5.97 5.97 0 0 0 1.46 4.03 4.62 4.62 0 0 0 3.56 1.53c1.02 0 1.88-.2 2.58-.62.7-.41 1.33-.96 1.86-1.64l1.76 1.36c-1.42 2.18-3.54 3.26-6.36 3.26Zm-.36-15.12c-1.16 0-2.14.43-2.93 1.28a6.13 6.13 0 0 0-1.47 3.55h8.45v-.22a5.48 5.48 0 0 0-1.19-3.4 3.58 3.58 0 0 0-2.86-1.21ZM813.19 405.49c-.44-.07-.92-.11-1.42-.11-1.9 0-3.19.8-3.86 2.4v12h-2.88V402.9h2.8l.04 1.95a4.5 4.5 0 0 1 4.04-2.27c.56 0 .98.08 1.28.22ZM821.4 415.85l4.19-12.95h2.93l-6.04 16.87h-2.2l-6.12-16.87h2.96ZM838.3 420.08a7.4 7.4 0 0 1-5.59-2.25c-1.43-1.5-2.14-3.5-2.14-6.03v-.53c0-1.67.32-3.17.95-4.48a7.51 7.51 0 0 1 2.69-3.08 6.68 6.68 0 0 1 3.73-1.13c2.2 0 3.9.73 5.11 2.18 1.22 1.44 1.83 3.51 1.83 6.2v1.2h-11.44a5.97 5.97 0 0 0 1.46 4.03 4.62 4.62 0 0 0 3.56 1.53c1.02 0 1.88-.2 2.58-.62.7-.41 1.33-.96 1.86-1.64l1.76 1.36c-1.41 2.18-3.54 3.26-6.36 3.26Zm-.36-15.12c-1.16 0-2.14.43-2.93 1.28a6.13 6.13 0 0 0-1.47 3.55h8.45v-.22a5.48 5.48 0 0 0-1.19-3.4 3.58 3.58 0 0 0-2.86-1.21ZM856.38 405.49c-.44-.07-.92-.11-1.42-.11-1.9 0-3.19.8-3.86 2.4v12h-2.88V402.9h2.8l.05 1.95a4.5 4.5 0 0 1 4.03-2.27c.56 0 .98.08 1.28.22Zm0 0" fill="#0f0e0c"/><path transform="matrix(7.48127 0 0 7.29243 392.4 178.14)" fill="none" d="M0 0h37.93" stroke="#737373"/><path stroke-linecap="round" transform="matrix(7.48127 0 0 7.29243 679.87 178.14)" fill="none" stroke-linejoin="round" d="m-2.5-1.5 2 1.5-2 1.5" stroke="#737373"/><path transform="matrix(-7.48127 0 0 -7.29243 680.05 293.27)" fill="none" d="M0 0h37.93" stroke="#737373"/><path stroke-linecap="round" transform="matrix(-7.48127 0 0 -7.29243 392.58 293.27)" fill="none" stroke-linejoin="round" d="m-2.5-1.5 2 1.5-2 1.5" stroke="#737373"/><path d="M489.12 126.42h-5.34v9.18h-3v-22.7h7.51c2.55 0 4.52.59 5.9 1.75 1.38 1.16 2.07 2.85 2.07 5.08a6.1 6.1 0 0 1-1.15 3.7 6.84 6.84 0 0 1-3.2 2.34l5.35 9.65v.18h-3.22Zm-5.34-2.46h4.6a5.2 5.2 0 0 0 3.54-1.14 3.9 3.9 0 0 0 1.33-3.1c0-1.4-.43-2.47-1.27-3.21-.84-.75-2.04-1.13-3.6-1.14h-4.6ZM507 135.92a7.4 7.4 0 0 1-5.6-2.25c-1.42-1.5-2.13-3.51-2.13-6.04v-.53c0-1.67.31-3.17.95-4.48a7.51 7.51 0 0 1 2.69-3.08 6.68 6.68 0 0 1 3.73-1.12c2.19 0 3.9.72 5.11 2.17 1.22 1.45 1.83 3.51 1.83 6.2v1.2h-11.44a5.97 5.97 0 0 0 1.46 4.03 4.62 4.62 0 0 0 3.56 1.54c1.02 0 1.88-.21 2.58-.63.7-.41 1.32-.96 1.86-1.64l1.76 1.36c-1.42 2.18-3.54 3.27-6.36 3.27Zm-.36-15.13c-1.17 0-2.15.43-2.93 1.28a6.13 6.13 0 0 0-1.47 3.55h8.45v-.22a5.48 5.48 0 0 0-1.19-3.4 3.58 3.58 0 0 0-2.86-1.21ZM516.22 127.02c0-2.64.6-4.73 1.8-6.28a5.92 5.92 0 0 1 4.92-2.32c2 0 3.57.67 4.71 2.01l.13-1.7h2.66v23.36h-2.9v-8.05a6.02 6.02 0 0 1-4.64 1.88 5.8 5.8 0 0 1-4.87-2.38c-1.21-1.58-1.81-3.69-1.81-6.31Zm2.87.33c0 1.94.4 3.46 1.22 4.57a3.93 3.93 0 0 0 3.31 1.64 4.3 4.3 0 0 0 3.92-2.27v-8.27a4.3 4.3 0 0 0-3.89-2.23c-1.4 0-2.5.55-3.32 1.66-.83 1.1-1.24 2.74-1.24 4.9ZM545.48 133.93c-1.12 1.32-2.77 1.99-4.94 1.99-1.8 0-3.17-.52-4.11-1.57-.94-1.05-1.42-2.6-1.42-4.64v-10.98h2.87v10.9c0 2.56 1.04 3.83 3.13 3.83 2.2 0 3.67-.81 4.39-2.45v-12.28h2.89v16.87h-2.75ZM559.67 135.92a7.4 7.4 0 0 1-5.6-2.25c-1.42-1.5-2.13-3.51-2.13-6.04v-.53c0-1.67.31-3.17.95-4.48a7.51 7.51 0 0 1 2.69-3.08 6.68 6.68 0 0 1 3.73-1.12c2.2 0 3.9.72 5.11 2.17 1.22 1.45 1.83 3.51 1.83 6.2v1.2h-11.44a5.97 5.97 0 0 0 1.46 4.03 4.62 4.62 0 0 0 3.56 1.54c1.02 0 1.88-.21 2.58-.63.7-.41 1.33-.96 1.86-1.64l1.76 1.36c-1.42 2.18-3.54 3.27-6.36 3.27Zm-.36-15.13c-1.16 0-2.14.43-2.93 1.28a6.13 6.13 0 0 0-1.47 3.55h8.45v-.22a5.48 5.48 0 0 0-1.19-3.4 3.58 3.58 0 0 0-2.86-1.21ZM579.4 131.13c0-.78-.29-1.38-.87-1.8a8.32 8.32 0 0 0-3.08-1.13 14.32 14.32 0 0 1-3.47-1.13 5 5 0 0 1-1.9-1.56c-.41-.6-.61-1.32-.61-2.14a4.4 4.4 0 0 1 1.75-3.52 6.83 6.83 0 0 1 4.48-1.43c1.91 0 3.47.5 4.66 1.48a4.71 4.71 0 0 1 1.78 3.78h-2.9a2.6 2.6 0 0 0-1-2.03 3.76 3.76 0 0 0-2.54-.86c-1.05 0-1.88.23-2.47.69-.6.46-.89 1.06-.89 1.8 0 .68.27 1.2.83 1.56.55.35 1.55.7 2.98 1.01 1.45.33 2.62.71 3.5 1.16.9.45 1.56 1 1.99 1.62.43.63.65 1.4.65 2.3 0 1.5-.6 2.71-1.8 3.63a7.57 7.57 0 0 1-4.7 1.36 8.54 8.54 0 0 1-3.59-.72 5.91 5.91 0 0 1-2.44-2 4.85 4.85 0 0 1-.87-2.78h2.87a3 3 0 0 0 1.16 2.3c.73.55 1.69.84 2.87.84 1.1 0 1.97-.22 2.63-.66.65-.45.98-1.04.98-1.77ZM589.96 114.65v4.08h3.16v2.23h-3.16v10.47c0 .67.14 1.17.42 1.52.29.33.76.5 1.44.5.33 0 .8-.07 1.38-.2v2.35c-.77.21-1.5.32-2.22.32-1.3 0-2.27-.4-2.92-1.18a5.04 5.04 0 0 1-.97-3.3v-10.48H584v-2.23h3.08v-4.08ZM485.33 337.45H480v9.19h-3v-22.7h7.51c2.55 0 4.52.58 5.9 1.75 1.38 1.15 2.07 2.85 2.07 5.07a6.1 6.1 0 0 1-1.15 3.7 6.84 6.84 0 0 1-3.2 2.35l5.35 9.64v.19h-3.22ZM480 335h4.6a5.2 5.2 0 0 0 3.54-1.14 3.9 3.9 0 0 0 1.33-3.1c0-1.4-.43-2.47-1.27-3.21-.84-.75-2.04-1.13-3.6-1.15h-4.6ZM503.21 346.95a7.4 7.4 0 0 1-5.6-2.25c-1.42-1.5-2.13-3.5-2.13-6.03v-.53c0-1.68.31-3.17.95-4.49a7.51 7.51 0 0 1 2.69-3.07 6.68 6.68 0 0 1 3.73-1.13c2.19 0 3.9.73 5.11 2.17 1.22 1.45 1.83 3.52 1.83 6.2v1.21h-11.44a5.97 5.97 0 0 0 1.46 4.03 4.62 4.62 0 0 0 3.56 1.53c1.02 0 1.88-.2 2.58-.62.7-.42 1.32-.96 1.86-1.64l1.76 1.36c-1.42 2.18-3.54 3.26-6.36 3.26Zm-.36-15.12c-1.17 0-2.15.43-2.93 1.28a6.13 6.13 0 0 0-1.47 3.54h8.45v-.21a5.48 5.48 0 0 0-1.19-3.4 3.58 3.58 0 0 0-2.86-1.21ZM527.38 338.39c0 2.57-.59 4.65-1.77 6.22a5.66 5.66 0 0 1-4.76 2.34c-2.06 0-3.67-.65-4.85-1.95v8.12h-2.87v-23.36h2.62l.15 1.88a5.96 5.96 0 0 1 4.9-2.19c2.02 0 3.62.77 4.8 2.3 1.19 1.53 1.78 3.65 1.78 6.37Zm-2.9-.33c0-1.9-.4-3.4-1.21-4.5a3.9 3.9 0 0 0-3.33-1.66c-1.75 0-3.06.78-3.94 2.33v8.07a4.26 4.26 0 0 0 3.97 2.3 3.9 3.9 0 0 0 3.3-1.65c.81-1.1 1.22-2.72 1.22-4.89ZM530.28 338.05c0-1.66.32-3.15.97-4.46a7.37 7.37 0 0 1 2.72-3.06 7.35 7.35 0 0 1 3.97-1.08c2.29 0 4.14.8 5.56 2.4 1.42 1.59 2.14 3.7 2.14 6.34v.2c0 1.65-.32 3.12-.95 4.42a7.14 7.14 0 0 1-6.72 4.14 7.1 7.1 0 0 1-5.57-2.37c-1.41-1.6-2.12-3.7-2.12-6.33Zm2.89.34c0 1.87.43 3.38 1.3 4.51a4.2 4.2 0 0 0 3.5 1.7c1.47 0 2.63-.58 3.48-1.73.86-1.14 1.3-2.75 1.3-4.82 0-1.86-.44-3.36-1.31-4.5a4.19 4.19 0 0 0-3.5-1.72c-1.43 0-2.58.57-3.46 1.7-.87 1.12-1.31 2.75-1.31 4.86ZM551.98 329.76l.09 2.13a6.15 6.15 0 0 1 5.06-2.44c3.56 0 5.36 2.01 5.4 6.03v11.16h-2.9v-11.17c-.01-1.21-.29-2.1-.83-2.69-.54-.58-1.39-.88-2.54-.88-.94 0-1.76.25-2.47.75a5.06 5.06 0 0 0-1.66 1.97v12.02h-2.87v-16.88ZM576.69 342.17c0-.78-.3-1.38-.88-1.81a8.32 8.32 0 0 0-3.07-1.13 14.32 14.32 0 0 1-3.47-1.12 5 5 0 0 1-1.9-1.56c-.42-.6-.62-1.32-.62-2.15a4.4 4.4 0 0 1 1.75-3.51 6.83 6.83 0 0 1 4.49-1.44c1.91 0 3.46.5 4.65 1.49a4.71 4.71 0 0 1 1.78 3.78h-2.89a2.6 2.6 0 0 0-1.01-2.03 3.76 3.76 0 0 0-2.53-.86c-1.06 0-1.88.23-2.47.68-.6.46-.9 1.06-.9 1.8 0 .69.28 1.21.83 1.56.56.36 1.55.7 2.99 1.02 1.44.32 2.61.71 3.5 1.16.9.44 1.55.99 1.98 1.62.44.63.66 1.4.66 2.3 0 1.5-.6 2.7-1.81 3.62a7.57 7.57 0 0 1-4.69 1.36 8.54 8.54 0 0 1-3.6-.72 5.91 5.91 0 0 1-2.43-2 4.85 4.85 0 0 1-.88-2.78h2.88a3 3 0 0 0 1.15 2.3c.73.56 1.7.84 2.88.84 1.1 0 1.97-.22 2.62-.65.66-.45.99-1.04.99-1.77ZM590.34 346.95a7.4 7.4 0 0 1-5.6-2.25c-1.42-1.5-2.13-3.5-2.13-6.03v-.53c0-1.68.31-3.17.95-4.49a7.51 7.51 0 0 1 2.69-3.07 6.68 6.68 0 0 1 3.73-1.13c2.19 0 3.9.73 5.11 2.17 1.22 1.45 1.83 3.52 1.83 6.2v1.21h-11.44a5.97 5.97 0 0 0 1.46 4.03 4.62 4.62 0 0 0 3.56 1.53c1.02 0 1.88-.2 2.58-.62.7-.42 1.32-.96 1.86-1.64l1.76 1.36c-1.42 2.18-3.54 3.26-6.36 3.26Zm-.36-15.12c-1.17 0-2.15.43-2.93 1.28a6.13 6.13 0 0 0-1.47 3.54h8.45v-.21a5.48 5.48 0 0 0-1.19-3.4 3.58 3.58 0 0 0-2.86-1.21Zm0 0" fill="#0f0e0c"/></svg>